# xmcd
#
# Track frame offsets:
#	150
#	14105
#	36152
#	53542
#	73295
#	90550
#	112582
#	131770
#	151782
#	169260
#	185817
#	199800
#	230465
#
# Disc length: 3077 seconds
#
# Revision: 1
# Processed by: cddbd v1.4PL0 Copyright (c) Steve Scherf et al.
# Submitted via: audiograbber 1.81.02
#
DISCID=af0c030d
DTITLE=Jonathan Edwards - Man in the moon
DYEAR=1997
DGENRE=Other
TTITLE0=Stay down
TTITLE1=Night fog
TTITLE2=Man in the moon
TTITLE3=Slave for love
TTITLE4=Whatever gets you through the night
TTITLE5=To me
TTITLE6=Do you remember me
TTITLE7=Follow the stars
TTITLE8=Break out of the blue
TTITLE9=Howl at the moon
TTITLE10=I'll forget you
TTITLE11=No more sad songs
TTITLE12=
EXTD=
EXTT0=
EXTT1=
EXTT2=
EXTT3=
EXTT4=
EXTT5=
EXTT6=
EXTT7=
EXTT8=
EXTT9=
EXTT10=
EXTT11=
EXTT12=
PLAYORDER=
